# xmcd CD database file
#
# Track frame offsets:
#	150
#	16818
#	32627
#	48328
#	74269
#	82317
#	104105
#	123976
#	136626
#	158244
#	175708
#	188045
#
# Disc length: 2651 seconds
#
# Revision: 0
# Processed by: cddbd v1.5.1PL0 Copyright (c) Steve Scherf et al.
# Submitted via: CDex 1.51
#
DISCID=9b0a590c
DTITLE=Ståhls Blå - Schlachtplatte
DYEAR=2004
DGENRE=Jazz
TTITLE0=Harads
TTITLE1=Glockenspielen
TTITLE2=Der grüne punkt
TTITLE3=Knivsöder
TTITLE4=Estradören
TTITLE5=Muffathalle
TTITLE6=Det var inte jag det var Hasse Larsson
TTITLE7=Revelj
TTITLE8=Schlachtplatte
TTITLE9=Från bussen
TTITLE10=Det ska kännas i magen
TTITLE11=Tyst
EXTD=YEAR: 2004
EXTT0=
EXTT1=
EXTT2=
EXTT3=
EXTT4=
EXTT5=
EXTT6=
EXTT7=
EXTT8=
EXTT9=
EXTT10=
EXTT11=
PLAYORDER=
